<?xml version="1.0" standalone="no"?>
<!DOCTYPE svg PUBLIC "-//W3C//DTD SVG 20010904//EN"
 "http://www.w3.org/TR/2001/REC-SVG-20010904/DTD/svg10.dtd">
<svg version="1.0" xmlns="http://www.w3.org/2000/svg"
 width="180.000000pt" height="180.000000pt" viewBox="0 0 180.000000 180.000000"
 preserveAspectRatio="xMidYMid meet">
<metadata>
Created by potrace 1.11, written by Peter Selinger 2001-2013
</metadata>
<g transform="translate(0.000000,180.000000) scale(0.100000,-0.100000)"
fill="#000000" stroke="none">
<path d="M146 814 c-14 -13 -16 -58 -16 -334 0 -276 2 -321 16 -334 13 -14 58
-16 334 -16 276 0 321 2 334 16 14 13 16 58 16 334 0 276 -2 321 -16 334 -13
14 -58 16 -334 16 -276 0 -321 -2 -334 -16z"/>
<path d="M986 814 c-14 -13 -16 -58 -16 -334 0 -276 2 -321 16 -334 13 -14 58
-16 334 -16 276 0 321 2 334 16 14 13 16 58 16 334 0 276 -2 321 -16 334 -13
14 -58 16 -334 16 -276 0 -321 -2 -334 -16z"/>
</g>
</svg>
