<?xml version="1.0" standalone="no"?>
<!DOCTYPE svg PUBLIC "-//W3C//DTD SVG 20010904//EN"
 "http://www.w3.org/TR/2001/REC-SVG-20010904/DTD/svg10.dtd">
<svg version="1.0" xmlns="http://www.w3.org/2000/svg"
 width="546.000000pt" height="546.000000pt" viewBox="0 0 546.000000 546.000000"
 preserveAspectRatio="xMidYMid meet">
<metadata>
Created by potrace 1.11, written by Peter Selinger 2001-2013
</metadata>
<g transform="translate(0.000000,546.000000) scale(0.100000,-0.100000)"
fill="#000000" stroke="none">
<path d="M235 5451 c-86 -21 -165 -86 -206 -169 l-24 -47 0 -2505 0 -2505 24
-47 c30 -61 88 -119 149 -149 l47 -24 2505 0 2505 0 47 24 c61 30 119 88 149
149 l24 47 0 2505 0 2505 -24 47 c-30 61 -88 119 -149 149 l-47 24 -2485 2
c-1367 0 -2498 -2 -2515 -6z m2213 -431 c18 -11 41 -34 52 -52 20 -32 20 -53
20 -978 0 -925 0 -946 -20 -978 -11 -18 -34 -41 -52 -52 -32 -20 -53 -20 -978
-20 -925 0 -946 0 -978 20 -18 11 -41 34 -52 52 -20 32 -20 53 -20 978 0 925
0 946 20 978 11 18 34 41 52 52 32 20 53 20 978 20 925 0 946 0 978 -20z
m2512 0 c26 -13 47 -34 60 -60 20 -38 20 -57 20 -970 0 -913 0 -932 -20 -970
-13 -26 -34 -47 -60 -60 -38 -20 -57 -20 -970 -20 -913 0 -932 0 -970 20 -26
13 -47 34 -60 60 -20 38 -20 57 -20 970 0 913 0 932 20 970 12 24 35 47 58 59
36 20 61 20 970 21 916 0 934 0 972 -20z"/>
</g>
</svg>
