<svg xmlns="http://www.w3.org/2000/svg" xmlns:xlink="http://www.w3.org/1999/xlink" x="0" y="0" enable-background="new 0 0 1000 1000" version="1.1" viewBox="0 0 1000 1000" xml:space="preserve"><metadata>Svg Vector Icons : http://www.onlinewebfonts.com/icon</metadata><g><path d="M500,10C229.4,10,10,229.4,10,500c0,270.6,219.4,490,490,490c270.6,0,490-219.4,490-490C990,229.4,770.6,10,500,10z M718.5,631.1c24.1,24.1,24.1,63.3,0,87.4s-63.3,24.1-87.4,0L500,587.4L368.9,718.5c-24.1,24.1-63.3,24.1-87.4,0c-24.1-24.1-24.1-63.3,0-87.4L412.6,500L281.5,368.9c-24.1-24.1-24.1-63.3,0-87.4c24.1-24.1,63.3-24.1,87.4,0L500,412.6l131.1-131.1c24.1-24.1,63.3-24.1,87.4,0s24.1,63.3,0,87.4L587.4,500L718.5,631.1z"/></g></svg>